# Blender 4.1.0
# www.blender.org
mtllib human1.2.mtl
o Cube
v -1.000000 1.000000 1.000000
v -1.000000 -1.000000 1.000000
v -1.000000 1.000000 -1.000000
v -1.000000 -1.000000 -1.000000
v 1.000000 1.000000 1.000000
v 1.000000 -1.000000 1.000000
v 1.000000 1.000000 -1.000000
v 1.000000 -1.000000 -1.000000
v -1.000000 1.000000 -1.997160
v 1.000000 0.387666 1.000000
v 1.000000 1.000000 -1.997160
v -1.000000 0.387666 1.000000
v -1.000000 1.000000 2.070503
v 1.000000 1.000000 2.070503
v 1.000000 -1.000000 0.000000
v -1.000000 -1.000000 0.000000
v -1.013011 -3.565739 1.576706
v 0.986989 -3.565739 1.576706
v 0.986989 -3.565739 0.576706
v -1.013011 -3.565739 0.576706
v -1.002967 -3.502209 -1.410348
v 0.997033 -3.502209 -1.410348
v 0.997033 -3.502209 -0.410348
v -1.002967 -3.502209 -0.410348
v 0.376627 1.011536 -0.344467
v 0.376627 1.413698 -0.344467
v 0.376627 1.011536 0.197502
v 0.376627 1.413698 0.197502
v -0.240623 1.011536 -0.344467
v -0.240623 1.413698 -0.344467
v -0.240623 1.011536 0.197502
v -0.240623 1.413698 0.197502
v 0.757062 1.373013 -0.688504
v 0.757062 2.556891 -0.688504
v 0.757062 1.373013 0.533848
v 0.757062 2.556891 0.533848
v -0.575048 1.373013 -0.688504
v -0.575048 2.556891 -0.688504
v -0.575048 1.373013 0.533848
v -0.575048 2.556891 0.533848
v -1.000000 0.409642 -1.000000
v 1.000000 0.409642 -1.000000
v -1.000000 0.409642 -1.997160
v 1.000000 0.409642 -1.997160
v -1.000000 0.387666 2.070503
v 1.000000 0.387666 2.070503
v 0.820258 0.401474 -1.309260
v -1.179742 0.401474 -1.309260
v 1.000000 -1.009944 -2.014015
v -1.000000 -1.009944 -2.014015
v 0.820258 -1.018112 -1.326116
v -1.179742 -1.018112 -1.326116
v -1.081346 0.390802 1.344813
v 0.918654 0.390802 1.344813
v -1.000000 -0.996052 2.064524
v 1.000000 -0.996052 2.064524
v -1.081346 -0.992917 1.338834
v 0.918654 -0.992917 1.338834
vn -1.0000 -0.0000 -0.0000
vn 1.0000 -0.0000 -0.0000
vn -0.0000 -0.1618 0.9868
vn 0.9005 -0.3774 0.2159
vn 0.6753 -0.6346 -0.3757
vn -0.0000 1.0000 -0.0000
vn -0.9751 0.1925 0.1101
vn -0.0000 -0.0000 1.0000
vn -0.0000 -0.2193 -0.9757
vn -0.0000 -1.0000 -0.0000
vn 1.0000 -0.0051 -0.0000
vn -0.0000 0.2193 0.9757
vn -1.0000 0.0051 -0.0000
vn -0.0000 0.1618 -0.9868
vn -1.0000 0.0012 -0.0000
vn 1.0000 -0.0012 -0.0000
vn -0.0000 -0.0000 -1.0000
vn -0.9675 0.0030 -0.2528
vn -0.0000 -0.0043 1.0000
vn -0.0000 -0.9997 0.0264
vn -0.0000 -0.9999 -0.0119
vn -0.0000 0.0119 -0.9999
vn -0.0000 -0.0119 0.9999
vn 0.9675 -0.0030 0.2528
vn -0.0000 -1.0000 0.0091
vn -0.0000 -1.0000 -0.0043
vn 0.9938 0.0005 -0.1114
vn -0.9938 -0.0005 0.1114
vn -0.0000 0.0043 -1.0000
vn -0.0454 0.9990 -0.0000
vn 0.9938 -0.0000 -0.1114
vn 0.9675 -0.0000 0.2528
vn -0.9733 -0.0000 -0.2296
vt 0.910698 0.606615
vt 0.820314 0.605821
vt 0.820763 0.552320
vt 0.037354 0.000000
vt 0.218573 0.181257
vt 0.127927 0.181257
vt 0.362725 0.647822
vt 0.181411 0.874253
vt 0.181411 0.647606
vt 0.322906 0.000000
vt 0.504269 0.181257
vt 0.413623 0.181257
vt 0.820314 0.368762
vt 0.754650 0.424184
vt 0.723277 0.424295
vt 0.820314 0.369556
vt 0.911147 0.422263
vt 0.883382 0.423656
vt 0.541551 0.090399
vt 0.722865 0.000000
vt 0.722865 0.090399
vt 0.820314 0.549699
vt 0.788942 0.605083
vt 0.723277 0.605156
vt 0.541551 0.494561
vt 0.723277 0.369358
vt 0.722864 0.495157
vt 0.722865 0.271713
vt 0.541551 0.368762
vt 0.541551 0.271713
vt 0.181411 0.414733
vt 0.362722 0.646688
vt 0.181411 0.647606
vt 0.541551 0.728030
vt 0.632207 0.909344
vt 0.541551 0.909344
vt 0.180130 0.413815
vt 0.541964 0.727434
vt 0.322978 0.181257
vt 0.361421 0.413815
vt 0.270775 0.413815
vt 0.632207 0.728030
vt 0.722864 0.909344
vt 0.632207 0.909344
vt 0.000097 0.541745
vt 0.181314 0.768254
vt 0.000000 0.768392
vt 0.450905 0.408035
vt 0.037282 0.181257
vt 0.090646 0.408035
vt 0.000000 0.408035
vt 0.903815 0.231332
vt 0.940263 0.182219
vt 0.940263 0.231346
vt 0.325162 0.930427
vt 0.361620 0.874468
vt 0.361620 0.930427
vt 0.940263 0.231346
vt 0.903815 0.280488
vt 0.903815 0.231361
vt 0.288704 0.930426
vt 0.325162 0.874468
vt 0.325162 0.930426
vt 0.491408 0.856070
vt 0.540541 0.912029
vt 0.491408 0.912029
vt 0.540541 0.856070
vt 0.491408 0.800112
vt 0.540541 0.800112
vt 0.181411 0.985269
vt 0.288704 0.874511
vt 0.288704 0.985312
vt 0.820314 0.977408
vt 0.927639 0.856643
vt 0.927639 0.977408
vt 0.107293 0.889157
vt -0.000000 1.000000
vt -0.000000 0.889199
vt 0.820314 0.856643
vt 0.927639 0.735878
vt 0.927639 0.856643
vt 0.365969 0.776443
vt 0.476783 0.897208
vt 0.365969 0.897208
vt 0.110815 0.889157
vt 0.000000 0.768392
vt 0.110815 0.768392
vt 0.848527 0.735878
vt 0.848079 0.607215
vt 0.904179 0.000000
vt 0.722865 0.053519
vt 0.722865 -0.000000
vt 0.181314 0.413815
vt 0.181411 0.541607
vt 0.778376 0.182205
vt 0.903815 0.363519
vt 0.778376 0.363519
vt 0.722865 0.182205
vt 0.491408 0.618798
vt 0.519446 0.783817
vt 0.491408 0.800112
vt 0.110815 0.949705
vt 0.173176 0.784687
vt 0.173176 0.966000
vt 0.904179 0.053519
vt 0.362722 0.413815
vt 0.491408 0.595129
vt 0.362722 0.595129
vt 0.820314 0.551721
vt 0.820763 0.423057
vt 0.522668 0.421190
vt 0.491408 0.413815
vt 0.789065 0.911874
vt 0.723277 0.737935
vt 0.789065 0.730560
vt 0.820314 0.424257
vt 0.754108 0.549588
vt 0.723819 0.730560
vt 0.365969 0.595129
vt 0.491408 0.776443
vt 0.365969 0.776443
vt 0.911147 0.553114
vt 0.218645 0.000000
vt 0.362725 0.874468
vt 0.504197 0.000000
vt 0.723277 0.368800
vt 0.910699 0.368762
vt 0.541551 0.000000
vt 0.723277 0.549661
vt 0.820314 0.605194
vt 0.541964 0.368762
vt 0.722865 0.368762
vt 0.362722 0.413815
vt 0.270775 0.413815
vt 0.723277 0.728030
vt 0.722864 0.728030
vt 0.541551 0.408035
vt 0.903815 0.182205
vt 0.325162 0.874468
vt 0.940263 0.280474
vt 0.288704 0.874468
vt 0.540541 0.856070
vt 0.491408 0.856070
vt 0.181411 0.874468
vt 0.820314 0.856643
vt 0.107293 0.999958
vt 0.820314 0.735878
vt 0.476783 0.776443
vt -0.000000 0.889157
vt 0.911147 0.735279
vt 0.000000 0.413953
vt 0.903815 0.182205
vt 0.722865 0.363519
vt 0.519446 0.602504
vt 0.110815 0.768392
vt 0.904179 0.182205
vt 0.491408 0.413815
vt 0.882934 0.552320
vt 0.522668 0.602504
vt 0.723277 0.919249
vt 0.819772 0.549661
vt 0.789483 0.730487
vt 0.491408 0.595129
s 0
usemtl Material
f 43/1/1 41/2/1 3/3/1
f 7/4/2 6/5/2 15/6/2
f 16/7/3 23/8/3 15/9/3
f 1/10/1 4/11/1 16/12/1
f 14/13/4 54/14/4 10/15/4
f 11/16/5 42/17/5 47/18/5
f 7/19/6 9/20/6 3/21/6
f 1/22/7 53/23/7 45/24/7
f 6/25/8 12/26/8 2/27/8
f 1/28/6 14/29/6 5/30/6
f 16/31/9 19/32/9 20/33/9
f 17/34/10 19/35/10 18/36/10
f 6/5/11 19/37/11 15/6/11
f 2/27/12 18/38/12 6/25/12
f 2/39/13 20/40/13 17/41/13
f 24/42/10 22/43/10 23/44/10
f 4/45/14 22/46/14 21/47/14
f 4/11/15 24/48/15 16/12/15
f 8/49/16 23/50/16 22/51/16
f 1/28/6 7/19/6 3/21/6
f 26/52/2 27/53/2 25/54/2
f 28/55/8 31/56/8 27/57/8
f 32/58/1 29/59/1 31/60/1
f 30/61/17 25/62/17 29/63/17
f 31/64/10 25/65/10 27/66/10
f 28/67/6 30/68/6 32/69/6
f 34/70/2 35/71/2 33/72/2
f 36/73/8 39/74/8 35/75/8
f 40/76/1 37/77/1 39/78/1
f 38/79/17 33/80/17 37/81/17
f 39/82/10 33/83/10 35/84/10
f 36/85/6 38/86/6 40/87/6
f 43/1/18 52/88/18 48/89/18
f 11/90/17 43/91/17 9/92/17
f 4/45/17 42/93/17 8/94/17
f 45/95/19 56/96/19 46/97/19
f 46/97/8 13/98/8 45/95/8
f 41/99/20 47/100/20 42/101/20
f 51/102/21 50/103/21 49/104/21
f 44/105/22 50/98/22 43/91/22
f 48/106/23 51/107/23 47/108/23
f 47/18/24 49/109/24 44/110/24
f 12/111/25 54/107/25 53/112/25
f 58/113/26 55/114/26 57/115/26
f 46/116/27 58/117/27 54/14/27
f 53/23/28 55/118/28 45/24/28
f 54/119/29 57/120/29 53/121/29
f 3/3/1 9/122/1 43/1/1
f 43/1/30 48/89/30 41/2/30
f 15/6/2 8/49/2 7/4/2
f 7/4/2 5/123/2 6/5/2
f 16/7/3 24/124/3 23/8/3
f 16/12/1 2/39/1 1/10/1
f 1/10/1 3/125/1 4/11/1
f 10/15/2 5/126/2 14/13/2
f 14/13/31 46/116/31 54/14/31
f 47/18/32 44/110/32 11/16/32
f 11/16/2 7/127/2 42/17/2
f 7/19/6 11/128/6 9/20/6
f 45/24/1 13/129/1 1/22/1
f 1/22/33 12/130/33 53/23/33
f 6/25/8 10/131/8 12/26/8
f 1/28/6 13/132/6 14/29/6
f 16/31/9 15/133/9 19/32/9
f 17/34/10 20/42/10 19/35/10
f 6/5/11 18/134/11 19/37/11
f 2/27/12 17/135/12 18/38/12
f 2/39/13 16/12/13 20/40/13
f 24/42/10 21/136/10 22/43/10
f 4/45/14 8/94/14 22/46/14
f 4/11/15 21/137/15 24/48/15
f 8/49/16 15/6/16 23/50/16
f 1/28/6 5/30/6 7/19/6
f 26/52/2 28/138/2 27/53/2
f 28/55/8 32/139/8 31/56/8
f 32/58/1 30/140/1 29/59/1
f 30/61/17 26/141/17 25/62/17
f 31/64/10 29/142/10 25/65/10
f 28/67/6 26/143/6 30/68/6
f 34/70/2 36/144/2 35/71/2
f 36/73/8 40/145/8 39/74/8
f 40/76/1 38/146/1 37/77/1
f 38/79/17 34/147/17 33/80/17
f 39/82/10 37/148/10 33/83/10
f 36/85/6 34/149/6 38/86/6
f 43/1/18 50/150/18 52/88/18
f 11/90/17 44/105/17 43/91/17
f 4/45/17 41/151/17 42/93/17
f 45/95/19 55/152/19 56/96/19
f 46/97/8 14/153/8 13/98/8
f 41/99/20 48/154/20 47/100/20
f 51/102/21 52/155/21 50/103/21
f 44/105/22 49/156/22 50/98/22
f 48/106/23 52/157/23 51/107/23
f 47/18/24 51/158/24 49/109/24
f 12/111/25 10/159/25 54/107/25
f 58/113/26 56/160/26 55/114/26
f 46/116/27 56/161/27 58/117/27
f 53/23/28 57/162/28 55/118/28
f 54/119/29 58/163/29 57/120/29
