# Blender 4.0.2
# www.blender.org
mtllib weopon.mtl
o Cube
v -4.751049 1.553039 1.040295
v 1.634294 -2.994566 1.040295
v -4.751049 1.553039 -0.959705
v 1.634294 -2.994566 -0.959705
v 3.503648 1.585701 1.040295
v 4.369180 -2.961904 1.040295
v 3.503648 1.585701 -0.959705
v 4.369180 -2.961904 -0.959705
v 3.079047 1.124617 1.040295
v 0.082868 0.814332 -0.959705
v 3.079047 1.124617 -0.959705
v 0.082868 0.814332 1.040295
v 2.932070 0.853248 1.040295
v 0.801423 0.053039 -0.959705
v 2.932070 0.853248 -0.959705
v 0.801423 0.053039 1.040295
v 3.732279 1.346993 1.040295
v -4.751049 0.987716 1.040295
v 3.732279 1.346993 -0.959705
v -4.751049 0.987716 -0.959705
v 3.732279 1.346993 -0.959705
v 4.369180 -2.961904 1.040295
v 4.369180 -2.961904 -0.959705
v -4.755252 2.615235 1.040295
v -4.755252 2.615235 -0.959705
v 3.499445 2.647897 1.040295
v 3.499445 2.647897 -0.959705
v 2.666541 2.644601 1.040295
v 2.657217 2.644564 -0.959705
v 2.660016 2.644575 -0.359363
v 3.499445 2.647897 -0.362406
v 3.499445 2.647897 0.453260
v 2.663278 2.644588 0.454782
v 2.797773 2.939075 0.549466
v 3.363152 2.941312 0.548437
v 2.799979 2.939084 0.945364
v 3.363152 2.941312 0.945364
v 3.363484 2.941442 -0.863705
v 2.791299 2.939178 -0.863705
v 2.793200 2.939186 -0.455850
v 3.363484 2.941442 -0.457918
vn -0.0000 -0.0000 1.0000
vn -0.0000 -0.0000 -1.0000
vn 0.9358 0.3525 -0.0000
vn 0.0119 -0.9999 -0.0000
vn -0.9646 -0.2636 -0.0000
vn -0.0358 -0.9994 -0.0000
vn 0.3223 -0.9467 -0.0000
vn -0.7272 -0.6864 -0.0000
vn 0.8793 -0.4762 -0.0000
vn 0.7222 0.6917 -0.0000
vn -1.0000 -0.0000 -0.0000
vn -0.0040 1.0000 -0.0000
vn 1.0000 0.0040 -0.0000
vn -1.0000 -0.0040 -0.0000
vn -0.9107 0.4131 0.0042
vn -0.0012 0.3073 0.9516
vn -0.9102 0.4141 0.0051
vn 0.9069 0.4213 -0.0000
vn -0.0029 0.3073 -0.9516
vn 0.0022 0.3103 0.9506
vn -0.0012 0.3103 -0.9506
vn 0.9074 0.4203 -0.0000
vn -0.0045 1.0000 -0.0000
vt 0.328306 0.047954
vt 0.406753 0.104804
vt 0.428024 0.638374
vt 0.849807 0.196685
vt 0.578423 0.091296
vt 0.856096 0.000000
vt 0.571922 0.660796
vt 0.715820 0.947943
vt 0.571922 0.947943
vt 0.143898 0.839183
vt 0.000000 0.643176
vt 0.143898 0.643176
vt 0.715936 0.691565
vt 0.859717 0.902360
vt 0.715820 0.902393
vt 0.277667 0.091336
vt 0.006275 0.196686
vt 0.000000 -0.000000
vt 0.571922 0.643133
vt 0.428024 0.987901
vt 0.428024 0.643133
vt 0.572220 0.296218
vt 0.545598 0.032224
vt 0.559458 0.079878
vt 0.283854 0.296258
vt 0.310496 0.032268
vt 0.311491 0.643176
vt 0.426010 0.787073
vt 0.377638 0.643176
vt 0.426010 0.643176
vt 0.859934 0.643133
vt 0.859834 0.691532
vt 0.227087 0.246996
vt 0.715820 0.643133
vt 0.715820 0.660796
vt 0.351965 0.641403
vt 0.261335 0.787073
vt 0.241831 0.643176
vt 0.261335 0.643176
vt 0.377638 0.787074
vt 0.337206 0.643176
vt 0.377605 0.643176
vt 0.544557 0.643133
vt 0.527787 0.047907
vt 0.898229 0.060162
vt 1.000000 0.060599
vt 0.999994 0.593922
vt 0.504084 0.641355
vt 0.449309 0.105417
vt 0.451727 0.044868
vt 0.241831 0.787073
vt 0.166273 0.744098
vt 0.166273 0.685412
vt 0.337239 0.787074
vt 0.187276 0.787073
vt 0.209435 0.823342
vt 0.187262 0.830268
vt 0.956806 0.060397
vt 0.898340 -0.000000
vt 0.957026 0.000001
vt 0.426410 0.053774
vt 0.428024 0.094262
vt 0.406197 0.787074
vt 0.377638 0.827594
vt 0.377638 0.787074
vt 0.209463 0.787073
vt 0.231611 0.822370
vt 0.209444 0.829201
vt 0.166273 0.643176
vt 0.143903 0.678564
vt 0.143903 0.650006
vt 0.187262 0.787073
vt 0.165588 0.837479
vt 0.165588 0.796801
vt 0.231624 0.828105
vt 0.260969 0.787074
vt 0.260969 0.828242
vt 0.143898 0.787073
vt 0.165588 0.837794
vt 0.143898 0.847470
vt 0.428024 0.094830
vt 0.429667 0.053694
vt 0.143898 0.780166
vt 0.143898 0.750970
vt 0.404366 0.044925
vt 0.628991 0.246964
vt 0.000000 0.839183
vt 0.571922 0.987901
vt 0.296633 0.079920
vt 0.377638 0.787073
vt 0.716037 0.643166
vt 0.571922 0.643133
vt 0.856096 0.593920
vt 0.856102 0.059926
vt 0.428024 0.638315
vt 0.166273 0.787073
vt 0.261367 0.787073
vt 0.209444 0.793997
vt 0.406122 0.827753
vt 0.231624 0.793885
vt 0.187262 0.847235
vt 0.231773 0.787073
vt 0.165588 0.796762
s 0
usemtl Material
f 5/1/1 28/2/1 24/3/1
f 4/4/2 15/5/2 8/6/2
f 15/7/3 22/8/3 23/9/3
f 2/10/4 8/11/4 6/12/4
f 16/13/5 4/14/5 2/15/5
f 13/16/1 2/17/1 6/18/1
f 12/19/6 20/20/6 10/21/6
f 10/22/2 21/23/2 11/24/2
f 12/25/1 17/26/1 18/27/1
f 11/28/7 17/29/7 9/30/7
f 16/13/8 10/31/8 14/32/8
f 15/5/2 10/22/2 11/24/2
f 13/16/1 12/25/1 16/33/1
f 15/7/9 9/34/9 13/35/9
f 18/27/1 5/1/1 1/36/1
f 19/37/10 5/38/10 17/39/10
f 18/40/11 3/41/11 20/42/11
f 20/43/2 7/44/2 21/23/2
f 33/45/12 29/46/12 25/47/12
f 3/48/2 29/49/2 27/50/2
f 7/51/13 31/52/13 32/53/13
f 1/54/14 25/39/14 3/41/14
f 30/55/15 39/56/15 29/57/15
f 30/58/12 32/59/12 31/60/12
f 28/2/16 37/61/16 36/62/16
f 35/63/12 36/64/12 37/65/12
f 28/66/17 34/67/17 33/68/17
f 26/69/18 35/70/18 37/71/18
f 32/72/19 34/73/19 35/74/19
f 40/75/12 38/76/12 39/77/12
f 31/78/20 40/79/20 30/80/20
f 27/50/21 39/81/21 38/82/21
f 31/52/22 38/83/22 41/84/22
f 24/3/1 1/36/1 5/1/1
f 5/1/1 26/85/1 28/2/1
f 4/4/2 14/86/2 15/5/2
f 15/7/3 13/35/3 22/8/3
f 2/10/4 4/87/4 8/11/4
f 16/13/5 14/32/5 4/14/5
f 13/16/1 16/33/1 2/17/1
f 12/19/6 18/88/6 20/20/6
f 10/22/2 20/43/2 21/23/2
f 12/25/1 9/89/1 17/26/1
f 11/28/7 19/90/7 17/29/7
f 16/13/8 12/91/8 10/31/8
f 15/5/2 14/86/2 10/22/2
f 13/16/1 9/89/1 12/25/1
f 15/7/9 11/92/9 9/34/9
f 18/27/1 17/26/1 5/1/1
f 19/37/10 7/51/10 5/38/10
f 18/40/11 1/54/11 3/41/11
f 20/43/2 3/48/2 7/44/2
f 25/47/12 24/93/12 28/94/12
f 33/45/23 30/58/23 29/46/23
f 25/47/12 28/94/12 33/45/12
f 27/50/2 7/44/2 3/48/2
f 3/48/2 25/95/2 29/49/2
f 26/69/13 5/38/13 7/51/13
f 7/51/13 27/96/13 31/52/13
f 32/53/13 26/69/13 7/51/13
f 1/54/14 24/97/14 25/39/14
f 30/55/15 40/98/15 39/56/15
f 30/58/12 33/45/12 32/59/12
f 28/2/16 26/85/16 37/61/16
f 35/63/12 34/99/12 36/64/12
f 28/66/17 36/100/17 34/67/17
f 26/69/18 32/53/18 35/70/18
f 32/72/19 33/101/19 34/73/19
f 40/75/12 41/102/12 38/76/12
f 31/78/20 41/103/20 40/79/20
f 27/50/21 29/49/21 39/81/21
f 31/52/22 27/96/22 38/83/22
